<svg width="24" height="24" viewBox="0 0 24 24" fill="none" xmlns="http://www.w3.org/2000/svg">
<g clip-path="url(#clip0_6415_79)">
<path d="M23.25 8.625H14.6625L12 0.75L9.3375 8.625H0.75L7.6875 13.5L5.025 21.375L12 16.5L18.9375 21.375L16.275 13.5L23.25 8.625Z" fill="#6B7280"/>
<path d="M17.325 7.6124L18.825 3.3374L14.8875 6.0374L15.45 7.6124H17.325ZM10.4625 18.7499L12 23.2499L13.5375 18.7499L12 17.6999L10.4625 18.7499ZM19.0125 12.8624L17.5875 13.8374L18.1875 15.6374H23.025L19.0125 12.8624ZM9.11247 6.0374L5.17498 3.3374L6.67497 7.6124H8.54997L9.11247 6.0374ZM4.98748 12.8624L0.974976 15.6374H5.81248L6.41248 13.8374L4.98748 12.8624Z" fill="black"/>
</g>
<defs>
<clipPath id="clip0_6415_79">
<rect width="24" height="24" fill="white"/>
</clipPath>
</defs>
</svg>
