<svg width="143" height="40" viewBox="0 0 143 40" fill="none" xmlns="http://www.w3.org/2000/svg">
<path d="M40.6275 27V12.8H43.6675V26.18L41.9875 24.44H50.2075V27H40.6275ZM51.2448 27V16.28H54.2448V27H51.2448ZM51.1848 14.96V12.56H54.2848V14.96H51.1848ZM58.8898 27L54.9698 16.28H58.1098L60.6498 23.98L63.1898 16.28H66.3098L62.3898 27H58.8898ZM67.0573 27V16.28H69.8973L69.9973 19.4L69.7773 19.34C69.9506 18.26 70.2573 17.48 70.6973 17C71.1373 16.52 71.744 16.28 72.5173 16.28H73.4973V18.76H72.5173C71.9573 18.76 71.4973 18.8333 71.1373 18.98C70.7773 19.1267 70.504 19.36 70.3173 19.68C70.144 20 70.0573 20.4333 70.0573 20.98V27H67.0573ZM78.7503 27.24C77.6569 27.24 76.6969 27.0133 75.8703 26.56C75.0569 26.0933 74.4236 25.44 73.9703 24.6C73.5303 23.76 73.3103 22.7733 73.3103 21.64C73.3103 20.5067 73.5303 19.5267 73.9703 18.7C74.4236 17.86 75.0569 17.2067 75.8703 16.74C76.6969 16.2733 77.6569 16.04 78.7503 16.04C79.8436 16.04 80.7969 16.2733 81.6103 16.74C82.4236 17.2067 83.0569 17.86 83.5103 18.7C83.9636 19.5267 84.1903 20.5067 84.1903 21.64C84.1903 22.7733 83.9636 23.76 83.5103 24.6C83.0569 25.44 82.4236 26.0933 81.6103 26.56C80.7969 27.0133 79.8436 27.24 78.7503 27.24ZM78.7503 24.94C79.4969 24.94 80.0703 24.6533 80.4703 24.08C80.8836 23.4933 81.0903 22.68 81.0903 21.64C81.0903 20.6 80.8836 19.7933 80.4703 19.22C80.0703 18.6333 79.4969 18.34 78.7503 18.34C78.0036 18.34 77.4236 18.6333 77.0103 19.22C76.5969 19.7933 76.3903 20.6 76.3903 21.64C76.3903 22.68 76.5969 23.4933 77.0103 24.08C77.4236 24.6533 78.0036 24.94 78.7503 24.94ZM91.0317 27.32C89.8183 27.32 88.7717 27.1133 87.8917 26.7C87.0117 26.2867 86.325 25.7067 85.8317 24.96C85.3383 24.2133 85.0583 23.3333 84.9917 22.32L88.0517 22.18C88.1183 22.74 88.2783 23.22 88.5317 23.62C88.785 24.0067 89.1183 24.3 89.5317 24.5C89.9583 24.7 90.4717 24.8 91.0717 24.8C91.5783 24.8 92.005 24.74 92.3517 24.62C92.7117 24.5 92.985 24.32 93.1717 24.08C93.3583 23.8267 93.4517 23.52 93.4517 23.16C93.4517 22.8267 93.3717 22.54 93.2117 22.3C93.065 22.0467 92.765 21.82 92.3117 21.62C91.8583 21.4067 91.185 21.2 90.2917 21C89.0783 20.72 88.105 20.4067 87.3717 20.06C86.6383 19.7133 86.0983 19.28 85.7517 18.76C85.4183 18.2267 85.2517 17.56 85.2517 16.76C85.2517 15.9067 85.465 15.16 85.8917 14.52C86.3183 13.88 86.925 13.38 87.7117 13.02C88.5117 12.66 89.465 12.48 90.5717 12.48C91.7583 12.48 92.7517 12.6867 93.5517 13.1C94.365 13.5133 94.9983 14.08 95.4517 14.8C95.9183 15.52 96.205 16.3467 96.3117 17.28L93.2717 17.44C93.2183 16.9467 93.0783 16.52 92.8517 16.16C92.625 15.7867 92.3183 15.5 91.9317 15.3C91.545 15.1 91.0783 15 90.5317 15C89.8517 15 89.3117 15.1533 88.9117 15.46C88.525 15.7667 88.3317 16.1667 88.3317 16.66C88.3317 17.0067 88.4183 17.3 88.5917 17.54C88.765 17.7667 89.065 17.9667 89.4917 18.14C89.9183 18.3133 90.5183 18.48 91.2917 18.64C92.5983 18.9067 93.6317 19.2467 94.3917 19.66C95.165 20.06 95.7117 20.54 96.0317 21.1C96.365 21.66 96.5317 22.3 96.5317 23.02C96.5317 23.9 96.305 24.6667 95.8517 25.32C95.4117 25.96 94.7783 26.4533 93.9517 26.8C93.1383 27.1467 92.165 27.32 91.0317 27.32ZM101.086 27.24C99.9659 27.24 99.0592 26.9867 98.3659 26.48C97.6726 25.96 97.3259 25.24 97.3259 24.32C97.3259 23.3733 97.6192 22.6467 98.2059 22.14C98.8059 21.62 99.6859 21.24 100.846 21L104.306 20.32C104.306 19.6267 104.146 19.1067 103.826 18.76C103.519 18.4 103.066 18.22 102.466 18.22C101.906 18.22 101.466 18.3533 101.146 18.62C100.826 18.8733 100.613 19.2533 100.506 19.76L97.5059 19.62C97.7059 18.4467 98.2326 17.56 99.0859 16.96C99.9526 16.3467 101.079 16.04 102.466 16.04C104.066 16.04 105.273 16.42 106.086 17.18C106.899 17.94 107.306 19.0533 107.306 20.52V24.18C107.306 24.4867 107.353 24.6933 107.446 24.8C107.553 24.8933 107.706 24.94 107.906 24.94H108.206V27C108.113 27.0267 107.959 27.0533 107.746 27.08C107.546 27.1067 107.339 27.12 107.126 27.12C106.713 27.12 106.319 27.0467 105.946 26.9C105.573 26.7533 105.273 26.5067 105.046 26.16C104.833 25.8 104.726 25.2933 104.726 24.64L104.986 24.84C104.853 25.32 104.613 25.74 104.266 26.1C103.933 26.46 103.493 26.74 102.946 26.94C102.413 27.14 101.793 27.24 101.086 27.24ZM101.806 25.18C102.299 25.18 102.733 25.0867 103.106 24.9C103.479 24.7 103.773 24.4133 103.986 24.04C104.199 23.6667 104.306 23.2267 104.306 22.72V22.2L101.866 22.72C101.373 22.8133 101.006 22.9733 100.766 23.2C100.526 23.4133 100.406 23.6933 100.406 24.04C100.406 24.4 100.526 24.68 100.766 24.88C101.006 25.08 101.353 25.18 101.806 25.18ZM112.273 27.24C111.153 27.24 110.247 26.9867 109.553 26.48C108.86 25.96 108.513 25.24 108.513 24.32C108.513 23.3733 108.807 22.6467 109.393 22.14C109.993 21.62 110.873 21.24 112.033 21L115.493 20.32C115.493 19.6267 115.333 19.1067 115.013 18.76C114.707 18.4 114.253 18.22 113.653 18.22C113.093 18.22 112.653 18.3533 112.333 18.62C112.013 18.8733 111.8 19.2533 111.693 19.76L108.693 19.62C108.893 18.4467 109.42 17.56 110.273 16.96C111.14 16.3467 112.267 16.04 113.653 16.04C115.253 16.04 116.46 16.42 117.273 17.18C118.087 17.94 118.493 19.0533 118.493 20.52V24.18C118.493 24.4867 118.54 24.6933 118.633 24.8C118.74 24.8933 118.893 24.94 119.093 24.94H119.393V27C119.3 27.0267 119.147 27.0533 118.933 27.08C118.733 27.1067 118.527 27.12 118.313 27.12C117.9 27.12 117.507 27.0467 117.133 26.9C116.76 26.7533 116.46 26.5067 116.233 26.16C116.02 25.8 115.913 25.2933 115.913 24.64L116.173 24.84C116.04 25.32 115.8 25.74 115.453 26.1C115.12 26.46 114.68 26.74 114.133 26.94C113.6 27.14 112.98 27.24 112.273 27.24ZM112.993 25.18C113.487 25.18 113.92 25.0867 114.293 24.9C114.667 24.7 114.96 24.4133 115.173 24.04C115.387 23.6667 115.493 23.2267 115.493 22.72V22.2L113.053 22.72C112.56 22.8133 112.193 22.9733 111.953 23.2C111.713 23.4133 111.593 23.6933 111.593 24.04C111.593 24.4 111.713 24.68 111.953 24.88C112.193 25.08 112.54 25.18 112.993 25.18ZM126.02 27.32C124.807 27.32 123.76 27.1133 122.88 26.7C122 26.2867 121.313 25.7067 120.82 24.96C120.327 24.2133 120.047 23.3333 119.98 22.32L123.04 22.18C123.107 22.74 123.267 23.22 123.52 23.62C123.773 24.0067 124.107 24.3 124.52 24.5C124.947 24.7 125.46 24.8 126.06 24.8C126.567 24.8 126.993 24.74 127.34 24.62C127.7 24.5 127.973 24.32 128.16 24.08C128.347 23.8267 128.44 23.52 128.44 23.16C128.44 22.8267 128.36 22.54 128.2 22.3C128.053 22.0467 127.753 21.82 127.3 21.62C126.847 21.4067 126.173 21.2 125.28 21C124.067 20.72 123.093 20.4067 122.36 20.06C121.627 19.7133 121.087 19.28 120.74 18.76C120.407 18.2267 120.24 17.56 120.24 16.76C120.24 15.9067 120.453 15.16 120.88 14.52C121.307 13.88 121.913 13.38 122.7 13.02C123.5 12.66 124.453 12.48 125.56 12.48C126.747 12.48 127.74 12.6867 128.54 13.1C129.353 13.5133 129.987 14.08 130.44 14.8C130.907 15.52 131.193 16.3467 131.3 17.28L128.26 17.44C128.207 16.9467 128.067 16.52 127.84 16.16C127.613 15.7867 127.307 15.5 126.92 15.3C126.533 15.1 126.067 15 125.52 15C124.84 15 124.3 15.1533 123.9 15.46C123.513 15.7667 123.32 16.1667 123.32 16.66C123.32 17.0067 123.407 17.3 123.58 17.54C123.753 17.7667 124.053 17.9667 124.48 18.14C124.907 18.3133 125.507 18.48 126.28 18.64C127.587 18.9067 128.62 19.2467 129.38 19.66C130.153 20.06 130.7 20.54 131.02 21.1C131.353 21.66 131.52 22.3 131.52 23.02C131.52 23.9 131.293 24.6667 130.84 25.32C130.4 25.96 129.767 26.4533 128.94 26.8C128.127 27.1467 127.153 27.32 126.02 27.32Z" fill="black"/>
<path d="M26.173 16.625H16.6905L13.7506 8.75L10.8106 16.625H1.32819L8.98866 21.5L6.04869 29.375L13.7506 24.5L21.411 29.375L18.4711 21.5L26.173 16.625Z" fill="#6B7280"/>
<path d="M19.6305 15.6124L21.2868 11.3374L16.939 14.0374L17.5601 15.6124H19.6305ZM12.0528 26.7499L13.7505 31.2499L15.4483 26.7499L13.7505 25.6999L12.0528 26.7499ZM21.4938 20.8624L19.9203 21.8374L20.5829 23.6374H25.9245L21.4938 20.8624ZM10.5621 14.0374L6.21429 11.3374L7.87061 15.6124H9.94101L10.5621 14.0374ZM6.00725 20.8624L1.5766 23.6374H6.91823L7.58075 21.8374L6.00725 20.8624Z" fill="#111827"/>
</svg>
